<?xml version="1.0" encoding="UTF-8" standalone="no"?>
<!DOCTYPE svg PUBLIC "-//W3C//DTD SVG 1.1//EN"
 "http://www.w3.org/Graphics/SVG/1.1/DTD/svg11.dtd">
<!-- Generated by graphviz version 2.40.1 (20161225.0304)
 -->
<!-- Title: R Pages: 1 -->
<svg width="1210pt" height="987pt"
 viewBox="0.00 0.00 1210.37 986.85" xmlns="http://www.w3.org/2000/svg" xmlns:xlink="http://www.w3.org/1999/xlink">
<g id="graph0" class="graph" transform="scale(1 1) rotate(0) translate(4 982.8503)">
<title>R</title>
<polygon fill="#ffffff" stroke="transparent" points="-4,4 -4,-982.8503 1206.3681,-982.8503 1206.3681,4 -4,4"/>
<text text-anchor="middle" x="601.184" y="-962.2503" font-family="Times,serif" font-size="14.00" fill="#000000">QRP shopping list (with links to shops)</text>
<g id="clust5" class="cluster">
<title>cluster_dc</title>
<polygon fill="none" stroke="#000000" points="8,-87.8313 8,-946.0503 901,-946.0503 901,-87.8313 8,-87.8313"/>
<text text-anchor="middle" x="454.5" y="-929.4503" font-family="Times,serif" font-size="14.00" fill="#000000">DC</text>
</g>
<!-- hfcable -->
<g id="node1" class="node">
<title>hfcable</title>
<ellipse fill="#f2f2f2" stroke="#f2f2f2" cx="1138" cy="-125.2469" rx="53.222" ry="29.3315"/>
<text text-anchor="middle" x="1138" y="-129.4469" font-family="Times,serif" font-size="14.00" fill="#000000">coax cable</text>
<text text-anchor="middle" x="1138" y="-112.6469" font-family="Times,serif" font-size="14.00" fill="#000000">(existing)</text>
</g>
<!-- vhfantenna -->
<g id="node3" class="node">
<title>vhfantenna</title>
<ellipse fill="#f2f2f2" stroke="#f2f2f2" cx="1138" cy="-29.4156" rx="64.2364" ry="29.3315"/>
<text text-anchor="middle" x="1138" y="-33.6156" font-family="Times,serif" font-size="14.00" fill="#000000">VHF antenna</text>
<text text-anchor="middle" x="1138" y="-16.8156" font-family="Times,serif" font-size="14.00" fill="#000000">(existing)</text>
</g>
<!-- hfcable&#45;&gt;vhfantenna -->
<g id="edge5" class="edge">
<title>hfcable&#45;&gt;vhfantenna</title>
<path fill="none" stroke="#000000" d="M1138,-95.7124C1138,-87.3325 1138,-78.0686 1138,-69.1889"/>
<polygon fill="#000000" stroke="#000000" points="1141.5001,-69.0175 1138,-59.0176 1134.5001,-69.0176 1141.5001,-69.0175"/>
</g>
<!-- antennatuner -->
<g id="node4" class="node">
<title>antennatuner</title>
<ellipse fill="#f2f2f2" stroke="#f2f2f2" cx="680" cy="-316.9095" rx="64.8252" ry="29.3315"/>
<text text-anchor="middle" x="680" y="-321.1095" font-family="Times,serif" font-size="14.00" fill="#000000">antenna tuner</text>
<text text-anchor="middle" x="680" y="-304.3095" font-family="Times,serif" font-size="14.00" fill="#000000">(existing)</text>
</g>
<!-- hfcable&#45;&gt;antennatuner -->
<g id="edge7" class="edge">
<title>hfcable&#45;&gt;antennatuner</title>
<path fill="none" stroke="#000000" d="M1109.4348,-150.4374C1096.6941,-162.3344 1081.9072,-177.0978 1070,-191.6626 1050.2983,-215.7615 1058.293,-233.8328 1032,-250.4939 926.7133,-317.2105 874.6039,-256.0121 754,-287.4939 748.2584,-288.9926 742.3619,-290.8157 736.5239,-292.8122"/>
<polygon fill="#000000" stroke="#000000" points="735.019,-289.6338 726.7917,-296.3093 737.3862,-296.2214 735.019,-289.6338"/>
</g>
<!-- hfantenna -->
<g id="node2" class="node">
<title>hfantenna</title>
<ellipse fill="#f2f2f2" stroke="#f2f2f2" cx="966" cy="-221.0782" rx="57.4441" ry="29.3315"/>
<text text-anchor="middle" x="966" y="-225.2782" font-family="Times,serif" font-size="14.00" fill="#000000">HF antenna</text>
<text text-anchor="middle" x="966" y="-208.4782" font-family="Times,serif" font-size="14.00" fill="#000000">(existing)</text>
</g>
<!-- antennatuner&#45;&gt;hfantenna -->
<g id="edge8" class="edge">
<title>antennatuner&#45;&gt;hfantenna</title>
<path fill="none" stroke="#000000" d="M727.8161,-296.7883C736.4566,-293.4722 745.4402,-290.2294 754,-287.4939 819.817,-266.4596 839.9706,-273.8498 905,-250.4939 908.6913,-249.1681 912.4564,-247.6883 916.2134,-246.1173"/>
<polygon fill="#000000" stroke="#000000" points="917.73,-249.2741 925.4888,-242.0595 914.9244,-242.8609 917.73,-249.2741"/>
</g>
<!-- qroradio -->
<g id="node5" class="node">
<title>qroradio</title>
<ellipse fill="#f2f2f2" stroke="#f2f2f2" cx="77" cy="-316.9095" rx="60.5522" ry="29.3315"/>
<text text-anchor="middle" x="77" y="-321.1095" font-family="Times,serif" font-size="14.00" fill="#000000">station radio</text>
<text text-anchor="middle" x="77" y="-304.3095" font-family="Times,serif" font-size="14.00" fill="#000000">(existing)</text>
</g>
<!-- handheldcharger -->
<g id="node6" class="node">
<title>handheldcharger</title>
<ellipse fill="#f2f2f2" stroke="#f2f2f2" cx="410" cy="-316.9095" rx="81.3004" ry="29.3315"/>
<text text-anchor="middle" x="410" y="-321.1095" font-family="Times,serif" font-size="14.00" fill="#000000">handheld radio</text>
<text text-anchor="middle" x="410" y="-304.3095" font-family="Times,serif" font-size="14.00" fill="#000000">charger (existing)</text>
</g>
<!-- dclab -->
<g id="node7" class="node">
<title>dclab</title>
<ellipse fill="#f2f2f2" stroke="#f2f2f2" cx="750" cy="-883.8346" rx="79.489" ry="29.3315"/>
<text text-anchor="middle" x="750" y="-888.0346" font-family="Times,serif" font-size="14.00" fill="#000000">lab power supply</text>
<text text-anchor="middle" x="750" y="-871.2346" font-family="Times,serif" font-size="14.00" fill="#000000">(existing)</text>
</g>
<!-- dccablebananapp -->
<g id="node17" class="node">
<title>dccablebananapp</title>
<g id="a_node17"><a xlink:href="https://www.wimo.com/en/powerpole-adapter-cable#?784=14050" xlink:title="cable banana\nto powerpole">
<ellipse fill="#c0c0c0" stroke="#c0c0c0" cx="750" cy="-750.0033" rx="63.0413" ry="29.3315"/>
<text text-anchor="middle" x="750" y="-754.2033" font-family="Times,serif" font-size="14.00" fill="#000000">cable banana</text>
<text text-anchor="middle" x="750" y="-737.4033" font-family="Times,serif" font-size="14.00" fill="#000000">to powerpole</text>
</a>
</g>
</g>
<!-- dclab&#45;&gt;dccablebananapp -->
<g id="edge14" class="edge">
<title>dclab&#45;&gt;dccablebananapp</title>
<path fill="none" stroke="#000000" d="M750,-854.1331C750,-835.1604 750,-810.3354 750,-789.6835"/>
<polygon fill="#000000" stroke="#000000" points="753.5001,-789.6218 750,-779.6218 746.5001,-789.6219 753.5001,-789.6218"/>
</g>
<!-- laptop -->
<g id="node8" class="node">
<title>laptop</title>
<ellipse fill="#f2f2f2" stroke="#f2f2f2" cx="368" cy="-125.2469" rx="75.8397" ry="29.3315"/>
<text text-anchor="middle" x="368" y="-129.4469" font-family="Times,serif" font-size="14.00" fill="#000000">laptop computer</text>
<text text-anchor="middle" x="368" y="-112.6469" font-family="Times,serif" font-size="14.00" fill="#000000">(existing)</text>
</g>
<!-- ic705datacable -->
<g id="node12" class="node">
<title>ic705datacable</title>
<g id="a_node12"><a xlink:href="https://www.wimo.com/en/opc-2418" xlink:title="USB Data Cable\nOPC_2418">
<ellipse fill="#c0c0c0" stroke="#c0c0c0" cx="447" cy="-29.4156" rx="77.0863" ry="29.3315"/>
<text text-anchor="middle" x="447" y="-33.6156" font-family="Times,serif" font-size="14.00" fill="#000000">USB Data Cable</text>
<text text-anchor="middle" x="447" y="-16.8156" font-family="Times,serif" font-size="14.00" fill="#000000">OPC_2418</text>
</a>
</g>
</g>
<!-- laptop&#45;&gt;ic705datacable -->
<g id="edge2" class="edge">
<title>laptop&#45;&gt;ic705datacable</title>
<path fill="none" stroke="#000000" d="M391.2753,-97.0127C399.3995,-87.1576 408.6321,-75.958 417.2126,-65.5493"/>
<polygon fill="#000000" stroke="#000000" points="419.9577,-67.7217 423.618,-57.7792 414.5564,-63.269 419.9577,-67.7217"/>
</g>
<!-- usbcharger -->
<g id="node9" class="node">
<title>usbcharger</title>
<ellipse fill="#f2f2f2" stroke="#f2f2f2" cx="233" cy="-316.9095" rx="77.677" ry="29.3315"/>
<text text-anchor="middle" x="233" y="-321.1095" font-family="Times,serif" font-size="14.00" fill="#000000">USB PD charger</text>
<text text-anchor="middle" x="233" y="-304.3095" font-family="Times,serif" font-size="14.00" fill="#000000">(existing)</text>
</g>
<!-- usbcharger&#45;&gt;laptop -->
<g id="edge26" class="edge">
<title>usbcharger&#45;&gt;laptop</title>
<path fill="none" stroke="#000000" d="M253.2109,-288.2157C276.8403,-254.6684 316.0073,-199.0621 341.9121,-162.2846"/>
<polygon fill="#000000" stroke="#000000" points="344.9746,-164.0145 347.8718,-153.8235 339.2517,-159.9835 344.9746,-164.0145"/>
</g>
<!-- ic705 -->
<g id="node10" class="node">
<title>ic705</title>
<g id="a_node10"><a xlink:href="https://www.wimo.com/en/icom-ic-705" xlink:title="QRP radio\nIcom IC&#45;705">
<polygon fill="#c0c0c0" stroke="#c0c0c0" points="596.9236,-337.5114 513.0764,-337.5114 509.0764,-333.5114 509.0764,-296.3076 592.9236,-296.3076 596.9236,-300.3076 596.9236,-337.5114"/>
<polyline fill="none" stroke="#c0c0c0" points="592.9236,-333.5114 509.0764,-333.5114 "/>
<polyline fill="none" stroke="#c0c0c0" points="592.9236,-333.5114 592.9236,-296.3076 "/>
<polyline fill="none" stroke="#c0c0c0" points="592.9236,-333.5114 596.9236,-337.5114 "/>
<text text-anchor="middle" x="553" y="-321.1095" font-family="Times,serif" font-size="14.00" fill="#000000">QRP radio</text>
<text text-anchor="middle" x="553" y="-304.3095" font-family="Times,serif" font-size="14.00" fill="#000000">Icom IC&#45;705</text>
</a>
</g>
</g>
<!-- ic705holder -->
<g id="node11" class="node">
<title>ic705holder</title>
<g id="a_node11"><a xlink:href="https://www.wimo.com/en/mba-705" xlink:title="Holder for IC&#45;705">
<polygon fill="#c0c0c0" stroke="#c0c0c0" points="1196.8515,-239.0782 1083.1485,-239.0782 1079.1485,-235.0782 1079.1485,-203.0782 1192.8515,-203.0782 1196.8515,-207.0782 1196.8515,-239.0782"/>
<polyline fill="none" stroke="#c0c0c0" points="1192.8515,-235.0782 1079.1485,-235.0782 "/>
<polyline fill="none" stroke="#c0c0c0" points="1192.8515,-235.0782 1192.8515,-203.0782 "/>
<polyline fill="none" stroke="#c0c0c0" points="1192.8515,-235.0782 1196.8515,-239.0782 "/>
<text text-anchor="middle" x="1138" y="-216.8782" font-family="Times,serif" font-size="14.00" fill="#000000">Holder for IC&#45;705</text>
</a>
</g>
</g>
<!-- ic705&#45;&gt;ic705holder -->
<g id="edge1" class="edge">
<title>ic705&#45;&gt;ic705holder</title>
<path fill="none" stroke="#000000" d="M585.1224,-296.2995C591.8004,-292.8224 598.9553,-289.6473 606,-287.4939 787.7446,-231.9381 844.9791,-284.2682 1032,-250.4939 1044.5312,-248.2308 1057.7254,-245.1512 1070.3872,-241.8339"/>
<polygon fill="#000000" stroke="#000000" points="1071.6603,-245.1157 1080.4047,-239.1335 1069.8383,-238.3569 1071.6603,-245.1157"/>
</g>
<!-- ic705holder&#45;&gt;hfcable -->
<g id="edge4" class="edge">
<title>ic705holder&#45;&gt;hfcable</title>
<path fill="none" stroke="#000000" d="M1132.5885,-203.0531C1131.4637,-192.272 1131.0478,-178.1296 1131.3408,-164.8627"/>
<polygon fill="#000000" stroke="#000000" points="1134.8524,-164.6152 1131.7278,-154.4917 1127.8573,-164.3542 1134.8524,-164.6152"/>
</g>
<!-- ic705holder&#45;&gt;hfcable -->
<g id="edge6" class="edge">
<title>ic705holder&#45;&gt;hfcable</title>
<path fill="none" stroke="#000000" d="M1143.4115,-203.0531C1144.5363,-192.272 1144.9522,-178.1296 1144.6592,-164.8627"/>
<polygon fill="#000000" stroke="#000000" points="1148.1427,-164.3542 1144.2722,-154.4917 1141.1476,-164.6152 1148.1427,-164.3542"/>
</g>
<!-- ic705datacable&#45;&gt;ic705 -->
<g id="edge3" class="edge">
<title>ic705datacable&#45;&gt;ic705</title>
<path fill="none" stroke="#000000" d="M457.7764,-58.6434C477.9739,-113.4232 521.3292,-231.0117 541.8262,-286.6039"/>
<polygon fill="#000000" stroke="#000000" points="538.6334,-288.0619 545.3767,-296.2336 545.2012,-285.6403 538.6334,-288.0619"/>
</g>
<!-- battery -->
<g id="node13" class="node">
<title>battery</title>
<g id="a_node13"><a xlink:href="https://www.motonet.fi/fi/tuote/901069/MTX-Energy-Litium-akku-12V-896Wh-MLTX20HL" xlink:title="Lithium battery 12V\n89,6Wh MLTX20HL">
<ellipse fill="#c0c0c0" stroke="#c0c0c0" cx="796" cy="-616.1721" rx="96.5829" ry="29.3315"/>
<text text-anchor="middle" x="796" y="-620.3721" font-family="Times,serif" font-size="14.00" fill="#000000">Lithium battery 12V</text>
<text text-anchor="middle" x="796" y="-603.5721" font-family="Times,serif" font-size="14.00" fill="#000000">89,6Wh MLTX20HL</text>
</a>
</g>
</g>
<!-- batterybox -->
<g id="node14" class="node">
<title>batterybox</title>
<g id="a_node14"><a xlink:href="https://www.wimo.com/en/megabox-portable-battery-case" xlink:title="Battery Box\nMegaBox">
<ellipse fill="#c0c0c0" stroke="#c0c0c0" cx="834" cy="-466.5408" rx="59.3565" ry="29.3315"/>
<text text-anchor="middle" x="834" y="-470.7408" font-family="Times,serif" font-size="14.00" fill="#000000">Battery Box</text>
<text text-anchor="middle" x="834" y="-453.9408" font-family="Times,serif" font-size="14.00" fill="#000000">MegaBox</text>
</a>
</g>
</g>
<!-- battery&#45;&gt;batterybox -->
<g id="edge9" class="edge">
<title>battery&#45;&gt;batterybox</title>
<path fill="none" stroke="#000000" d="M803.5076,-586.6097C809.3818,-563.479 817.6036,-531.1044 824.0297,-505.8004"/>
<polygon fill="#000000" stroke="#000000" points="827.5036,-506.3406 826.5728,-495.7867 820.7189,-504.6175 827.5036,-506.3406"/>
<text text-anchor="middle" x="829.0505" y="-537.1564" font-family="Times,serif" font-size="14.00" fill="#000000">fits?</text>
</g>
<!-- dccablepp -->
<g id="node16" class="node">
<title>dccablepp</title>
<g id="a_node16"><a xlink:href="https://www.wimo.com/en/pp-ext-60cm" xlink:title="cable powerpole\n60cm">
<ellipse fill="#c0c0c0" stroke="#c0c0c0" cx="605" cy="-616.1721" rx="76.4068" ry="29.3315"/>
<text text-anchor="middle" x="605" y="-620.3721" font-family="Times,serif" font-size="14.00" fill="#000000">cable powerpole</text>
<text text-anchor="middle" x="605" y="-603.5721" font-family="Times,serif" font-size="14.00" fill="#000000">60cm</text>
</a>
</g>
</g>
<!-- batterybox&#45;&gt;dccablepp -->
<g id="edge12" class="edge">
<title>batterybox&#45;&gt;dccablepp</title>
<path fill="none" stroke="#000000" d="M801.2133,-491.3444C763.3039,-517.4065 700.6748,-558.4061 656.3252,-586.2467"/>
<polygon fill="#000000" stroke="#000000" points="654.3361,-583.3625 647.7118,-591.6311 658.0466,-589.2982 654.3361,-583.3625"/>
</g>
<!-- dccableic705 -->
<g id="node15" class="node">
<title>dccableic705</title>
<g id="a_node15"><a xlink:href="https://www.wimo.com/en/dc-cab705-tr" xlink:title="cable fused\npowerpole to 2x 5.5mm">
<ellipse fill="#c0c0c0" stroke="#c0c0c0" cx="491" cy="-466.5408" rx="105.791" ry="29.3315"/>
<text text-anchor="middle" x="491" y="-470.7408" font-family="Times,serif" font-size="14.00" fill="#000000">cable fused</text>
<text text-anchor="middle" x="491" y="-453.9408" font-family="Times,serif" font-size="14.00" fill="#000000">powerpole to 2x 5.5mm</text>
</a>
</g>
</g>
<!-- dccableic705&#45;&gt;antennatuner -->
<g id="edge10" class="edge">
<title>dccableic705&#45;&gt;antennatuner</title>
<path fill="none" stroke="#000000" d="M529.2243,-438.9328C537.5399,-432.608 546.1836,-425.7819 554,-419.1251 580.7544,-396.3397 583.7608,-386.5286 611,-364.3251 618.1981,-358.4578 626.1011,-352.5657 633.9087,-347.0268"/>
<polygon fill="#000000" stroke="#000000" points="636.1039,-349.763 642.3056,-341.1729 632.1007,-344.0207 636.1039,-349.763"/>
</g>
<!-- dccableic705&#45;&gt;ic705 -->
<g id="edge11" class="edge">
<title>dccableic705&#45;&gt;ic705</title>
<path fill="none" stroke="#000000" d="M529.5614,-438.9043C541.287,-428.2557 552.7232,-415.0296 559,-400.1251 565.9175,-383.6994 564.799,-363.8388 561.7714,-347.64"/>
<polygon fill="#000000" stroke="#000000" points="565.1302,-346.6163 559.5715,-337.5968 558.2924,-348.1142 565.1302,-346.6163"/>
</g>
<!-- dccablepp&#45;&gt;batterybox -->
<g id="edge13" class="edge">
<title>dccablepp&#45;&gt;batterybox</title>
<path fill="none" stroke="#000000" d="M639.8716,-589.9371C678.9883,-563.1197 742.4491,-521.6308 786.1629,-494.28"/>
<polygon fill="#000000" stroke="#000000" points="788.2636,-497.0951 794.9021,-488.8379 784.5633,-491.153 788.2636,-497.0951"/>
</g>
<!-- dccablepp&#45;&gt;dccableic705 -->
<g id="edge16" class="edge">
<title>dccablepp&#45;&gt;dccableic705</title>
<path fill="none" stroke="#000000" d="M583.2891,-587.6754C565.1017,-563.8034 539.0118,-529.5589 519.2089,-503.5665"/>
<polygon fill="#000000" stroke="#000000" points="521.8627,-501.2744 513.0183,-495.4411 516.2946,-505.5166 521.8627,-501.2744"/>
</g>
<!-- dccableppmolex6 -->
<g id="node18" class="node">
<title>dccableppmolex6</title>
<g id="a_node18"><a xlink:href="https://www.wimo.com/en/powerpole-adapter-cable#?784=14058" xlink:title="cable powerpole\nto Molex 6pin">
<ellipse fill="#c0c0c0" stroke="#c0c0c0" cx="106" cy="-466.5408" rx="76.4068" ry="29.3315"/>
<text text-anchor="middle" x="106" y="-470.7408" font-family="Times,serif" font-size="14.00" fill="#000000">cable powerpole</text>
<text text-anchor="middle" x="106" y="-453.9408" font-family="Times,serif" font-size="14.00" fill="#000000">to Molex 6pin</text>
</a>
</g>
</g>
<!-- dccablepp&#45;&gt;dccableppmolex6 -->
<g id="edge17" class="edge">
<title>dccablepp&#45;&gt;dccableppmolex6</title>
<path fill="none" stroke="#000000" d="M544.3117,-597.9739C451.5261,-570.151 274.8423,-517.1702 176.5038,-487.6822"/>
<polygon fill="#000000" stroke="#000000" points="177.2397,-484.249 166.6557,-484.7291 175.229,-490.954 177.2397,-484.249"/>
</g>
<!-- dccablepp55 -->
<g id="node19" class="node">
<title>dccablepp55</title>
<g id="a_node19"><a xlink:href="https://www.wimo.com/en/powerpole-adapter-cable#?784=14053" xlink:title="cable powerpole\nto 5.5mm">
<ellipse fill="#c0c0c0" stroke="#c0c0c0" cx="291" cy="-466.5408" rx="76.4068" ry="29.3315"/>
<text text-anchor="middle" x="291" y="-470.7408" font-family="Times,serif" font-size="14.00" fill="#000000">cable powerpole</text>
<text text-anchor="middle" x="291" y="-453.9408" font-family="Times,serif" font-size="14.00" fill="#000000">to 5.5mm</text>
</a>
</g>
</g>
<!-- dccablepp&#45;&gt;dccablepp55 -->
<g id="edge19" class="edge">
<title>dccablepp&#45;&gt;dccablepp55</title>
<path fill="none" stroke="#000000" d="M556.9684,-593.2834C500.9523,-566.5899 408.4177,-522.4942 348.5941,-493.9863"/>
<polygon fill="#000000" stroke="#000000" points="349.8173,-490.6921 339.2842,-489.5498 346.806,-497.0113 349.8173,-490.6921"/>
</g>
<!-- dcppmeter -->
<g id="node22" class="node">
<title>dcppmeter</title>
<g id="a_node22"><a xlink:href="https://www.wimo.com/en/rigrunner-wattmeter" xlink:title="power meter\npowerpole">
<ellipse fill="#c0c0c0" stroke="#c0c0c0" cx="696" cy="-466.5408" rx="61.1214" ry="29.3315"/>
<text text-anchor="middle" x="696" y="-470.7408" font-family="Times,serif" font-size="14.00" fill="#000000">power meter</text>
<text text-anchor="middle" x="696" y="-453.9408" font-family="Times,serif" font-size="14.00" fill="#000000">powerpole</text>
</a>
</g>
</g>
<!-- dccablepp&#45;&gt;dcppmeter -->
<g id="edge29" class="edge">
<title>dccablepp&#45;&gt;dcppmeter</title>
<path fill="none" stroke="#000000" d="M622.5457,-587.3216C637.0526,-563.4679 657.7495,-529.4361 673.4786,-503.5727"/>
<polygon fill="#000000" stroke="#000000" points="676.611,-505.1579 678.8168,-494.7952 670.6302,-501.5205 676.611,-505.1579"/>
</g>
<!-- dccablebananapp&#45;&gt;dccablepp -->
<g id="edge15" class="edge">
<title>dccablebananapp&#45;&gt;dccablepp</title>
<path fill="none" stroke="#000000" d="M721.3527,-723.5626C698.6145,-702.5759 666.6582,-673.081 641.9876,-650.3106"/>
<polygon fill="#000000" stroke="#000000" points="644.3056,-647.6872 634.5833,-643.4767 639.5579,-652.8311 644.3056,-647.6872"/>
</g>
<!-- dccableppmolex6&#45;&gt;qroradio -->
<g id="edge18" class="edge">
<title>dccableppmolex6&#45;&gt;qroradio</title>
<path fill="none" stroke="#000000" d="M100.2705,-436.9785C95.8021,-413.9226 89.5536,-381.6825 84.6566,-356.415"/>
<polygon fill="#000000" stroke="#000000" points="88.0564,-355.5618 82.7176,-346.4104 81.1843,-356.8937 88.0564,-355.5618"/>
</g>
<!-- dccablepp55&#45;&gt;antennatuner -->
<g id="edge20" class="edge">
<title>dccablepp55&#45;&gt;antennatuner</title>
<path fill="none" stroke="#000000" d="M347.7304,-446.7871C398.6211,-429.0369 467.2131,-405.0275 480,-400.1251 528.9265,-381.3671 583.8391,-358.3776 623.729,-341.3191"/>
<polygon fill="#000000" stroke="#000000" points="625.2097,-344.4925 633.0222,-337.336 622.4521,-338.0585 625.2097,-344.4925"/>
<text text-anchor="middle" x="532.0505" y="-387.5251" font-family="Times,serif" font-size="14.00" fill="#000000">fits?</text>
</g>
<!-- dccablepp55&#45;&gt;handheldcharger -->
<g id="edge21" class="edge">
<title>dccablepp55&#45;&gt;handheldcharger</title>
<path fill="none" stroke="#000000" d="M290.1486,-437.0409C290.9961,-420.0712 294.4437,-399.0639 304.899,-383.3251 315.4802,-367.3968 331.3251,-354.5389 347.5232,-344.5339"/>
<polygon fill="#000000" stroke="#000000" points="349.6623,-347.3375 356.5273,-339.2677 346.1282,-341.2951 349.6623,-347.3375"/>
<text text-anchor="middle" x="317.0505" y="-387.5251" font-family="Times,serif" font-size="14.00" fill="#000000">fits?</text>
</g>
<!-- dccablepp55&#45;&gt;handheldcharger -->
<g id="edge23" class="edge">
<title>dccablepp55&#45;&gt;handheldcharger</title>
<path fill="none" stroke="#000000" d="M313.383,-438.3963C332.6027,-414.2293 360.4255,-379.2447 381.2832,-353.0182"/>
<polygon fill="#000000" stroke="#000000" points="384.0303,-355.187 387.5154,-345.1818 378.5516,-350.8299 384.0303,-355.187"/>
<text text-anchor="middle" x="369.0505" y="-387.5251" font-family="Times,serif" font-size="14.00" fill="#000000">fits?</text>
</g>
<!-- dccablepp55&#45;&gt;handheldcharger -->
<g id="edge24" class="edge">
<title>dccablepp55&#45;&gt;handheldcharger</title>
<path fill="none" stroke="#000000" d="M336.7709,-442.8709C354.0412,-431.9293 372.5116,-417.4795 385,-400.1251 394.2352,-387.2916 400.0988,-371.0175 403.8037,-356.2714"/>
<polygon fill="#000000" stroke="#000000" points="407.2514,-356.893 406.0386,-346.3678 400.4231,-355.352 407.2514,-356.893"/>
<text text-anchor="middle" x="407.0505" y="-387.5251" font-family="Times,serif" font-size="14.00" fill="#000000">fits?</text>
</g>
<!-- dccablepp55&#45;&gt;usbcharger -->
<g id="edge25" class="edge">
<title>dccablepp55&#45;&gt;usbcharger</title>
<path fill="none" stroke="#000000" d="M267.1886,-438.4718C258.847,-427.22 250.2375,-413.7114 244.899,-400.1251 239.5826,-386.5951 236.6019,-370.9954 234.9442,-356.9851"/>
<polygon fill="#000000" stroke="#000000" points="238.3882,-356.2471 233.9176,-346.6417 231.4224,-356.9385 238.3882,-356.2471"/>
<text text-anchor="middle" x="257.0505" y="-387.5251" font-family="Times,serif" font-size="14.00" fill="#000000">fits?</text>
</g>
<!-- dccablepp55&#45;&gt;ic705 -->
<g id="edge22" class="edge">
<title>dccablepp55&#45;&gt;ic705</title>
<path fill="none" stroke="#000000" d="M339.2838,-443.7327C364.5512,-431.426 395.8047,-415.6161 423,-400.1251 454.2434,-382.3283 488.4489,-360.3263 513.9281,-343.4166"/>
<polygon fill="#000000" stroke="#000000" points="516.1788,-346.1226 522.5574,-337.663 512.2955,-340.2985 516.1788,-346.1226"/>
<text text-anchor="middle" x="464.0505" y="-387.5251" font-family="Times,serif" font-size="14.00" fill="#000000">fits?</text>
</g>
<!-- dccarpp -->
<g id="node20" class="node">
<title>dccarpp</title>
<g id="a_node20"><a xlink:href="https://www.wimo.com/en/pp-cig" xlink:title="adapter car\nto powerpole">
<ellipse fill="#c0c0c0" stroke="#c0c0c0" cx="605" cy="-750.0033" rx="63.0413" ry="29.3315"/>
<text text-anchor="middle" x="605" y="-754.2033" font-family="Times,serif" font-size="14.00" fill="#000000">adapter car</text>
<text text-anchor="middle" x="605" y="-737.4033" font-family="Times,serif" font-size="14.00" fill="#000000">to powerpole</text>
</a>
</g>
</g>
<!-- dccarpp&#45;&gt;dccablepp -->
<g id="edge27" class="edge">
<title>dccarpp&#45;&gt;dccablepp</title>
<path fill="none" stroke="#000000" d="M605,-720.3018C605,-701.3292 605,-676.5041 605,-655.8522"/>
<polygon fill="#000000" stroke="#000000" points="608.5001,-655.7905 605,-645.7905 601.5001,-655.7906 608.5001,-655.7905"/>
</g>
<!-- dccharger -->
<g id="node21" class="node">
<title>dccharger</title>
<ellipse fill="#c0c0c0" stroke="#c0c0c0" cx="475" cy="-750.0033" rx="49.197" ry="18"/>
<text text-anchor="middle" x="475" y="-745.8033" font-family="Times,serif" font-size="14.00" fill="#000000">dccharger</text>
</g>
<!-- dccharger&#45;&gt;dccablepp -->
<g id="edge28" class="edge">
<title>dccharger&#45;&gt;dccablepp</title>
<path fill="none" stroke="#000000" d="M491.7291,-732.7812C511.6394,-712.2841 545.393,-677.5358 570.8871,-651.2903"/>
<polygon fill="#000000" stroke="#000000" points="573.717,-653.4002 578.1742,-643.7885 568.6959,-648.5228 573.717,-653.4002"/>
</g>
<!-- dcpp7 -->
<g id="node23" class="node">
<title>dcpp7</title>
<g id="a_node23"><a xlink:href="https://www.wimo.com/en/pp-8split" xlink:title="fuze panel\n7x powerpole">
<ellipse fill="#c0c0c0" stroke="#c0c0c0" cx="828" cy="-316.9095" rx="65.4378" ry="29.3315"/>
<text text-anchor="middle" x="828" y="-321.1095" font-family="Times,serif" font-size="14.00" fill="#000000">fuze panel</text>
<text text-anchor="middle" x="828" y="-304.3095" font-family="Times,serif" font-size="14.00" fill="#000000">7x powerpole</text>
</a>
</g>
</g>
<!-- dcppmeter&#45;&gt;dcpp7 -->
<g id="edge30" class="edge">
<title>dcppmeter&#45;&gt;dcpp7</title>
<path fill="none" stroke="#000000" d="M719.9042,-439.4437C741.5425,-414.9152 773.5414,-378.6421 797.1119,-351.9233"/>
<polygon fill="#000000" stroke="#000000" points="799.8368,-354.1251 803.8276,-344.3106 794.5874,-349.4943 799.8368,-354.1251"/>
</g>
<!-- dcpp7&#45;&gt;dccablepp -->
<g id="edge31" class="edge">
<title>dcpp7&#45;&gt;dccablepp</title>
<path fill="none" stroke="#000000" d="M779.1995,-336.7917C770.8267,-340.064 762.1874,-343.3542 754,-346.3251 693.3053,-368.3495 616,-327.158 616,-391.7251 616,-541.3564 616,-541.3564 616,-541.3564 616,-552.9156 614.6988,-565.3736 612.9915,-576.7447"/>
<polygon fill="#000000" stroke="#000000" points="609.5029,-576.3899 611.335,-586.8251 616.4103,-577.525 609.5029,-576.3899"/>
</g>
</g>
</svg>
